<svg width="18" height="20" viewBox="0 0 18 20" fill="none" xmlns="http://www.w3.org/2000/svg">
<path d="M1.66667 0.833496H16.3333C16.8396 0.833496 17.25 1.24391 17.25 1.75016V19.4201C17.25 19.6733 17.0448 19.8785 16.7917 19.8785C16.7273 19.8785 16.6637 19.8649 16.6049 19.8387L9 16.4455L1.39509 19.8387C1.16392 19.9419 0.892918 19.838 0.789774 19.6069C0.763548 19.5481 0.75 19.4845 0.75 19.4201V1.75016C0.75 1.24391 1.16041 0.833496 1.66667 0.833496ZM15.4167 17.301V2.66683H2.58333V17.301L9 14.4379L15.4167 17.301ZM9 11.3752L6.30598 12.7915L6.8205 9.79162L4.64099 7.66717L7.65296 7.2295L9 4.50016L10.347 7.2295L13.359 7.66717L11.1795 9.79162L11.694 12.7915L9 11.3752Z" fill="#525252"/>
</svg>
