<svg width="22" height="16" viewBox="0 0 22 16" fill="none" xmlns="http://www.w3.org/2000/svg">
<path d="M14.667 0.666504C15.1733 0.666504 15.5837 1.07691 15.5837 1.58317V5.43317L20.3625 2.08799C20.5699 1.94282 20.8557 1.99326 21.0008 2.20064C21.0547 2.27767 21.0837 2.36943 21.0837 2.46347V13.5362C21.0837 13.7893 20.8784 13.9946 20.6253 13.9946C20.5313 13.9946 20.4395 13.9656 20.3625 13.9117L15.5837 10.5665V14.4165C15.5837 14.9228 15.1733 15.3332 14.667 15.3332H1.83366C1.3274 15.3332 0.916992 14.9228 0.916992 14.4165V1.58317C0.916992 1.07691 1.3274 0.666504 1.83366 0.666504H14.667ZM13.7503 2.49984H2.75033V13.4998H13.7503V2.49984ZM8.25033 4.33317L11.917 7.99984H9.16699V11.6665H7.33366V7.99984H4.58366L8.25033 4.33317ZM19.2503 5.10437L15.5837 7.67075V8.32892L19.2503 10.8953V5.10437Z" fill="#525252"/>
</svg>
