<svg width="16" height="21" viewBox="0 0 16 21" fill="none" xmlns="http://www.w3.org/2000/svg">
<path d="M0.666992 20.1665C0.666992 16.1164 3.95024 12.8332 8.00033 12.8332C12.0504 12.8332 15.3337 16.1164 15.3337 20.1665H13.5003C13.5003 17.1289 11.0379 14.6665 8.00033 14.6665C4.96276 14.6665 2.50033 17.1289 2.50033 20.1665H0.666992ZM8.00033 11.9165C4.96158 11.9165 2.50033 9.45525 2.50033 6.4165C2.50033 3.37775 4.96158 0.916504 8.00033 0.916504C11.0391 0.916504 13.5003 3.37775 13.5003 6.4165C13.5003 9.45525 11.0391 11.9165 8.00033 11.9165ZM8.00033 10.0832C10.0262 10.0832 11.667 8.44234 11.667 6.4165C11.667 4.39067 10.0262 2.74984 8.00033 2.74984C5.97449 2.74984 4.33366 4.39067 4.33366 6.4165C4.33366 8.44234 5.97449 10.0832 8.00033 10.0832Z" fill="#525252"/>
</svg>
