<svg width="18" height="21" viewBox="0 0 18 21" fill="none" xmlns="http://www.w3.org/2000/svg">
<path d="M3 7.33317V6.4165C3 3.37894 5.68629 0.916504 9 0.916504C12.3137 0.916504 15 3.37894 15 6.4165V7.33317H17C17.5523 7.33317 18 7.74358 18 8.24984V19.2498C18 19.7561 17.5523 20.1665 17 20.1665H1C0.44772 20.1665 0 19.7561 0 19.2498V8.24984C0 7.74358 0.44772 7.33317 1 7.33317H3ZM16 9.1665H2V18.3332H16V9.1665ZM8 14.4212C7.4022 14.1042 7 13.5118 7 12.8332C7 11.8206 7.8954 10.9998 9 10.9998C10.1046 10.9998 11 11.8206 11 12.8332C11 13.5118 10.5978 14.1042 10 14.4212V16.4998H8V14.4212ZM5 7.33317H13V6.4165C13 4.39146 11.2091 2.74984 9 2.74984C6.79086 2.74984 5 4.39146 5 6.4165V7.33317Z" fill="#525252"/>
</svg>
