<svg width="14" height="18" viewBox="0 0 14 18" fill="none" xmlns="http://www.w3.org/2000/svg">
<path d="M0.535156 17.081C0.535156 13.5107 3.42947 10.6164 6.9998 10.6164C10.5701 10.6164 13.4644 13.5107 13.4644 17.081H11.8483C11.8483 14.4033 9.67754 12.2325 6.9998 12.2325C4.32206 12.2325 2.15132 14.4033 2.15132 17.081H0.535156ZM6.9998 9.8083C4.32101 9.8083 2.15132 7.6386 2.15132 4.95981C2.15132 2.28103 4.32101 0.111328 6.9998 0.111328C9.67859 0.111328 11.8483 2.28103 11.8483 4.95981C11.8483 7.6386 9.67859 9.8083 6.9998 9.8083ZM6.9998 8.19214C8.78566 8.19214 10.2321 6.74567 10.2321 4.95981C10.2321 3.17395 8.78566 1.72749 6.9998 1.72749C5.21394 1.72749 3.76748 3.17395 3.76748 4.95981C3.76748 6.74567 5.21394 8.19214 6.9998 8.19214Z" fill="white"/>
</svg>
