<svg width="18" height="20" viewBox="0 0 18 20" fill="none" xmlns="http://www.w3.org/2000/svg">
<path d="M11.75 2.66683V6.3335H15.4167V17.3335H2.58333V2.66683H11.75ZM1.66529 0.833496C1.1602 0.833496 0.75 1.24054 0.75 1.74265V18.2577C0.75 18.7495 1.1577 19.1668 1.66062 19.1668H16.3394C16.8422 19.1668 17.25 18.7533 17.25 18.2433L17.2497 5.41683L12.6667 0.833496H1.66529ZM11.7507 9.69491L7.27841 6.71332C7.21818 6.67316 7.14742 6.65174 7.075 6.65174C6.87251 6.65174 6.70833 6.81589 6.70833 7.0184V12.9815C6.70833 13.0539 6.72978 13.1247 6.76993 13.1849C6.88223 13.3534 7.10992 13.399 7.27841 13.2866L11.7507 10.305C11.791 10.2782 11.8255 10.2436 11.8524 10.2034C11.9648 10.0349 11.9192 9.8072 11.7507 9.69491Z" fill="#525252"/>
</svg>
