<svg width="131" height="26" viewBox="0 0 131 26" fill="none" xmlns="http://www.w3.org/2000/svg">
<path d="M0.212358 26V0.545454H10.255C12.1856 0.545454 13.8304 0.91418 15.1893 1.65163C16.5482 2.3808 17.5839 3.39583 18.2965 4.69673C19.0174 5.98935 19.3778 7.48082 19.3778 9.17116C19.3778 10.8615 19.0133 12.353 18.2841 13.6456C17.5549 14.9382 16.4985 15.945 15.1147 16.6658C13.7392 17.3867 12.0737 17.7472 10.1183 17.7472H3.71733V13.4343H9.24822C10.284 13.4343 11.1374 13.2562 11.8086 12.8999C12.488 12.5353 12.9935 12.034 13.3249 11.396C13.6647 10.7496 13.8345 10.008 13.8345 9.17116C13.8345 8.32599 13.6647 7.58854 13.3249 6.95881C12.9935 6.32078 12.488 5.82777 11.8086 5.47976C11.1291 5.12346 10.2674 4.94531 9.22337 4.94531H5.59411V26H0.212358ZM22.8735 26V0.545454H40.0255V4.9826H28.2552V11.0479H39.143V15.4851H28.2552V21.5629H40.0752V26H22.8735ZM44.3042 26V0.545454H54.3468C56.2774 0.545454 57.9222 0.91418 59.2811 1.65163C60.64 2.3808 61.6757 3.39583 62.3883 4.69673C63.1092 5.98935 63.4696 7.48082 63.4696 9.17116C63.4696 10.8615 63.1051 12.353 62.3759 13.6456C61.6467 14.9382 60.5903 15.945 59.2065 16.6658C57.831 17.3867 56.1655 17.7472 54.2101 17.7472H47.8091V13.4343H53.34C54.3758 13.4343 55.2292 13.2562 55.9004 12.8999C56.5798 12.5353 57.0853 12.034 57.4167 11.396C57.7565 10.7496 57.9263 10.008 57.9263 9.17116C57.9263 8.32599 57.7565 7.58854 57.4167 6.95881C57.0853 6.32078 56.5798 5.82777 55.9004 5.47976C55.2209 5.12346 54.3592 4.94531 53.3152 4.94531H49.6859V26H44.3042ZM66.9653 26V0.545454H83.819V4.9826H72.347V11.0479H82.7004V15.4851H72.347V26H66.9653ZM88.6476 26H82.8806L91.6679 0.545454H98.6032L107.378 26H101.611L95.235 6.36222H95.0361L88.6476 26ZM88.2872 15.9947H101.909V20.1957H88.2872V15.9947ZM110.442 26V0.545454H120.484C122.407 0.545454 124.047 0.889322 125.406 1.57706C126.774 2.25651 127.813 3.22183 128.526 4.47301C129.247 5.71591 129.607 7.17838 129.607 8.86044C129.607 10.5508 129.243 12.005 128.514 13.223C127.784 14.4328 126.728 15.3608 125.344 16.0071C123.969 16.6534 122.303 16.9766 120.348 16.9766H113.624V12.6513H119.478C120.505 12.6513 121.359 12.5104 122.038 12.2287C122.718 11.947 123.223 11.5244 123.554 10.9609C123.894 10.3975 124.064 9.69732 124.064 8.86044C124.064 8.01527 123.894 7.30267 123.554 6.72266C123.223 6.14264 122.713 5.70348 122.026 5.40518C121.346 5.0986 120.489 4.94531 119.453 4.94531H115.824V26H110.442ZM124.188 14.4162L130.515 26H124.574L118.384 14.4162H124.188Z" fill="#007BFF"/>
</svg>
